<?xml version="1.0" standalone="no"?><!DOCTYPE svg PUBLIC "-//W3C//DTD SVG 1.1//EN" "http://www.w3.org/Graphics/SVG/1.1/DTD/svg11.dtd"><svg t="1742818780903" class="icon" viewBox="0 0 1024 1024" version="1.1" xmlns="http://www.w3.org/2000/svg" p-id="9592" xmlns:xlink="http://www.w3.org/1999/xlink" width="200" height="200"><path d="M381.44 281.472a126.634667 126.634667 0 0 0-91.093333 29.482667 135.808 135.808 0 0 0-42.282667 108.074666 40.661333 40.661333 0 0 0 81.066667 0 65.450667 65.450667 0 0 1 15.658666-49.536 46.592 46.592 0 0 1 30.165334-10.069333 40.192 40.192 0 0 0 43.392-35.925333 36.778667 36.778667 0 0 0-8.533334-27.264 41.770667 41.770667 0 0 0-28.373333-14.762667z" fill="#f4ea2a" p-id="9593"></path><path d="M841.813333 195.584a264.533333 264.533333 0 0 0-238.634666-65.365333 44.416 44.416 0 0 0-28.8 19.712 42.154667 42.154667 0 0 0-5.248 32.554666 44.928 44.928 0 0 0 54.186666 32.554667 171.306667 171.306667 0 0 1 154.538667 41.856 202.581333 202.581333 0 0 1 0 297.258667l-248.106667 236.672a25.6 25.6 0 0 1-35.413333 0l-248.874667-235.861334a205.098667 205.098667 0 0 1-64.298666-149.333333 202.837333 202.837333 0 0 1 62.336-145.962667 174.208 174.208 0 0 1 237.952 0l59.008 56.149334a233.088 233.088 0 0 0 138.197333 66.474666h4.778667a102.016 102.016 0 0 0 74.88-36.437333 41.088 41.088 0 0 0 10.026666-31.189333 43.136 43.136 0 0 0-16.725333-29.866667 46.592 46.592 0 0 0-63.36 6.698667 12.16 12.16 0 0 1-9.002667 4.992 138.538667 138.538667 0 0 1-73.813333-41.728l-60.928-57.941334a266.88 266.88 0 0 0-362.282667 0 287.402667 287.402667 0 0 0 0 420.778667l279.850667 265.258667a80.384 80.384 0 0 0 100.096 0l279.722667-265.984a287.402667 287.402667 0 0 0 0-420.778667z" fill="#f4ea2a" p-id="9594"></path></svg>